<svg id="visual" viewBox="0 0 960 540" width="960" height="540" xmlns="http://www.w3.org/2000/svg" xmlns:xlink="http://www.w3.org/1999/xlink" version="1.1"><path d="M0 33L22.8 33C45.7 33 91.3 33 137 31.3C182.7 29.7 228.3 26.3 274 24.7C319.7 23 365.3 23 411.2 24.7C457 26.3 503 29.7 548.8 31.3C594.7 33 640.3 33 686 31.3C731.7 29.7 777.3 26.3 823 25.5C868.7 24.7 914.3 26.3 937.2 27.2L960 28L960 0L937.2 0C914.3 0 868.7 0 823 0C777.3 0 731.7 0 686 0C640.3 0 594.7 0 548.8 0C503 0 457 0 411.2 0C365.3 0 319.7 0 274 0C228.3 0 182.7 0 137 0C91.3 0 45.7 0 22.8 0L0 0Z" fill="#b5dac6"></path><path d="M0 66L22.8 64.2C45.7 62.3 91.3 58.7 137 55C182.7 51.3 228.3 47.7 274 48.5C319.7 49.3 365.3 54.7 411.2 59.2C457 63.7 503 67.3 548.8 69.2C594.7 71 640.3 71 686 66.5C731.7 62 777.3 53 823 50.3C868.7 47.7 914.3 51.3 937.2 53.2L960 55L960 26L937.2 25.2C914.3 24.3 868.7 22.7 823 23.5C777.3 24.3 731.7 27.7 686 29.3C640.3 31 594.7 31 548.8 29.3C503 27.7 457 24.3 411.2 22.7C365.3 21 319.7 21 274 22.7C228.3 24.3 182.7 27.7 137 29.3C91.3 31 45.7 31 22.8 31L0 31Z" fill="#c3e2d0"></path><path d="M0 120L22.8 119C45.7 118 91.3 116 137 114.2C182.7 112.3 228.3 110.7 274 110.7C319.7 110.7 365.3 112.3 411.2 111.5C457 110.7 503 107.3 548.8 105.7C594.7 104 640.3 104 686 102.2C731.7 100.3 777.3 96.7 823 99.3C868.7 102 914.3 111 937.2 115.5L960 120L960 53L937.2 51.2C914.3 49.3 868.7 45.7 823 48.3C777.3 51 731.7 60 686 64.5C640.3 69 594.7 69 548.8 67.2C503 65.3 457 61.7 411.2 57.2C365.3 52.7 319.7 47.3 274 46.5C228.3 45.7 182.7 49.3 137 53C91.3 56.7 45.7 60.3 22.8 62.2L0 64Z" fill="#d0eada"></path><path d="M0 152L22.8 152C45.7 152 91.3 152 137 151.2C182.7 150.3 228.3 148.7 274 149.7C319.7 150.7 365.3 154.3 411.2 150.7C457 147 503 136 548.8 130.5C594.7 125 640.3 125 686 124.2C731.7 123.3 777.3 121.7 823 128C868.7 134.3 914.3 148.7 937.2 155.8L960 163L960 118L937.2 113.5C914.3 109 868.7 100 823 97.3C777.3 94.7 731.7 98.3 686 100.2C640.3 102 594.7 102 548.8 103.7C503 105.3 457 108.7 411.2 109.5C365.3 110.3 319.7 108.7 274 108.7C228.3 108.7 182.7 110.3 137 112.2C91.3 114 45.7 116 22.8 117L0 118Z" fill="#def3e5"></path><path d="M0 249L22.8 254.5C45.7 260 91.3 271 137 275.5C182.7 280 228.3 278 274 276.2C319.7 274.3 365.3 272.7 411.2 262.8C457 253 503 235 548.8 231.3C594.7 227.7 640.3 238.3 686 242.8C731.7 247.3 777.3 245.7 823 250.2C868.7 254.7 914.3 265.3 937.2 270.7L960 276L960 161L937.2 153.8C914.3 146.7 868.7 132.3 823 126C777.3 119.7 731.7 121.3 686 122.2C640.3 123 594.7 123 548.8 128.5C503 134 457 145 411.2 148.7C365.3 152.3 319.7 148.7 274 147.7C228.3 146.7 182.7 148.3 137 149.2C91.3 150 45.7 150 22.8 150L0 150Z" fill="#ebfcf0"></path><path d="M0 276L22.8 282.3C45.7 288.7 91.3 301.3 137 306.8C182.7 312.3 228.3 310.7 274 311.7C319.7 312.7 365.3 316.3 411.2 309.2C457 302 503 284 548.8 278.5C594.7 273 640.3 280 686 284.5C731.7 289 777.3 291 823 293.7C868.7 296.3 914.3 299.7 937.2 301.3L960 303L960 274L937.2 268.7C914.3 263.3 868.7 252.7 823 248.2C777.3 243.7 731.7 245.3 686 240.8C640.3 236.3 594.7 225.7 548.8 229.3C503 233 457 251 411.2 260.8C365.3 270.7 319.7 272.3 274 274.2C228.3 276 182.7 278 137 273.5C91.3 269 45.7 258 22.8 252.5L0 247Z" fill="#f0fff4"></path><path d="M0 384L22.8 387.7C45.7 391.3 91.3 398.7 137 402.3C182.7 406 228.3 406 274 404.2C319.7 402.3 365.3 398.7 411.2 394.2C457 389.7 503 384.3 548.8 379C594.7 373.7 640.3 368.3 686 370.2C731.7 372 777.3 381 823 385.5C868.7 390 914.3 390 937.2 390L960 390L960 301L937.2 299.3C914.3 297.7 868.7 294.3 823 291.7C777.3 289 731.7 287 686 282.5C640.3 278 594.7 271 548.8 276.5C503 282 457 300 411.2 307.2C365.3 314.3 319.7 310.7 274 309.7C228.3 308.7 182.7 310.3 137 304.8C91.3 299.3 45.7 286.7 22.8 280.3L0 274Z" fill="#f0fff4"></path><path d="M0 406L22.8 409.7C45.7 413.3 91.3 420.7 137 423.3C182.7 426 228.3 424 274 423C319.7 422 365.3 422 411.2 419.3C457 416.7 503 411.3 548.8 406C594.7 400.7 640.3 395.3 686 395.3C731.7 395.3 777.3 400.7 823 405.2C868.7 409.7 914.3 413.3 937.2 415.2L960 417L960 388L937.2 388C914.3 388 868.7 388 823 383.5C777.3 379 731.7 370 686 368.2C640.3 366.3 594.7 371.7 548.8 377C503 382.3 457 387.7 411.2 392.2C365.3 396.7 319.7 400.3 274 402.2C228.3 404 182.7 404 137 400.3C91.3 396.7 45.7 389.3 22.8 385.7L0 382Z" fill="#ebfcf0"></path><path d="M0 422L22.8 425.7C45.7 429.3 91.3 436.7 137 440.3C182.7 444 228.3 444 274 443C319.7 442 365.3 440 411.2 437.3C457 434.7 503 431.3 548.8 426C594.7 420.7 640.3 413.3 686 413.3C731.7 413.3 777.3 420.7 823 426C868.7 431.3 914.3 434.7 937.2 436.3L960 438L960 415L937.2 413.2C914.3 411.3 868.7 407.7 823 403.2C777.3 398.7 731.7 393.3 686 393.3C640.3 393.3 594.7 398.7 548.8 404C503 409.3 457 414.7 411.2 417.3C365.3 420 319.7 420 274 421C228.3 422 182.7 424 137 421.3C91.3 418.7 45.7 411.3 22.8 407.7L0 404Z" fill="#def3e5"></path><path d="M0 444L22.8 448.5C45.7 453 91.3 462 137 466.5C182.7 471 228.3 471 274 468.3C319.7 465.7 365.3 460.3 411.2 457.7C457 455 503 455 548.8 451.3C594.7 447.7 640.3 440.3 686 440.3C731.7 440.3 777.3 447.7 823 453C868.7 458.3 914.3 461.7 937.2 463.3L960 465L960 436L937.2 434.3C914.3 432.7 868.7 429.3 823 424C777.3 418.7 731.7 411.3 686 411.3C640.3 411.3 594.7 418.7 548.8 424C503 429.3 457 432.7 411.2 435.3C365.3 438 319.7 440 274 441C228.3 442 182.7 442 137 438.3C91.3 434.7 45.7 427.3 22.8 423.7L0 420Z" fill="#d0eada"></path><path d="M0 471L22.8 474.5C45.7 478 91.3 485 137 488.5C182.7 492 228.3 492 274 489.3C319.7 486.7 365.3 481.3 411.2 479.7C457 478 503 480 548.8 477.3C594.7 474.7 640.3 467.3 686 466.3C731.7 465.3 777.3 470.7 823 474.3C868.7 478 914.3 480 937.2 481L960 482L960 463L937.2 461.3C914.3 459.7 868.7 456.3 823 451C777.3 445.7 731.7 438.3 686 438.3C640.3 438.3 594.7 445.7 548.8 449.3C503 453 457 453 411.2 455.7C365.3 458.3 319.7 463.7 274 466.3C228.3 469 182.7 469 137 464.5C91.3 460 45.7 451 22.8 446.5L0 442Z" fill="#c3e2d0"></path><path d="M0 541L22.8 541C45.7 541 91.3 541 137 541C182.7 541 228.3 541 274 541C319.7 541 365.3 541 411.2 541C457 541 503 541 548.8 541C594.7 541 640.3 541 686 541C731.7 541 777.3 541 823 541C868.7 541 914.3 541 937.2 541L960 541L960 480L937.2 479C914.3 478 868.7 476 823 472.3C777.3 468.7 731.7 463.3 686 464.3C640.3 465.3 594.7 472.7 548.8 475.3C503 478 457 476 411.2 477.7C365.3 479.3 319.7 484.7 274 487.3C228.3 490 182.7 490 137 486.5C91.3 483 45.7 476 22.8 472.5L0 469Z" fill="#b5dac6"></path></svg>