<svg width="73" height="99" viewBox="0 0 73 99" fill="none" xmlns="http://www.w3.org/2000/svg">
<path d="M28.268 49.216L27.608 48.072L30.072 46.664C32.096 45.5493 33.108 43.7747 33.108 41.34C33.108 36.7933 29.6467 34.52 22.724 34.52H18.676V64H17.356V33.2H22.724C26.596 33.2 29.5147 33.9187 31.48 35.356C33.4453 36.764 34.428 38.7587 34.428 41.34C34.428 44.2733 33.196 46.4293 30.732 47.808L28.268 49.216Z" fill="black"/>
<path d="M47.9082 64H46.5882V61.932C42.9802 61.8147 40.4722 61.008 39.0642 59.512L39.9442 58.544C41.3815 59.864 43.5962 60.5533 46.5882 60.612V48.82C45.4442 48.468 44.5055 48.1453 43.7722 47.852C43.0388 47.5293 42.2762 47.1187 41.4842 46.62C40.7215 46.092 40.1495 45.4467 39.7682 44.684C39.3868 43.9213 39.1962 43.0267 39.1962 42C39.1962 39.8293 39.8855 38.2013 41.2642 37.116C42.6428 36.0013 44.4175 35.4 46.5882 35.312V33.2H47.9082V35.312C51.1642 35.4 53.5108 36.2067 54.9482 37.732L54.0682 38.7C52.7482 37.4387 50.6948 36.7493 47.9082 36.632V47.808C48.9348 48.1013 49.6682 48.3213 50.1082 48.468C50.5482 48.6147 51.1935 48.8493 52.0442 49.172C52.9242 49.4947 53.5695 49.8173 53.9802 50.14C54.4202 50.4627 54.8895 50.8733 55.3882 51.372C55.9162 51.8707 56.2828 52.4427 56.4882 53.088C56.6935 53.7333 56.7962 54.4667 56.7962 55.288C56.7962 57.224 56.0335 58.7933 54.5082 59.996C52.9828 61.1693 50.7828 61.8147 47.9082 61.932V64ZM47.9082 49.216V60.568C50.4015 60.4213 52.2788 59.8493 53.5402 58.852C54.8308 57.8253 55.4762 56.652 55.4762 55.332C55.4762 54.5987 55.3148 53.9387 54.9922 53.352C54.6988 52.736 54.3468 52.2373 53.9362 51.856C53.5548 51.4747 52.9682 51.108 52.1762 50.756C51.4135 50.404 50.7535 50.14 50.1962 49.964C49.6682 49.7587 48.9055 49.5093 47.9082 49.216ZM46.5882 47.412V36.632C42.5402 36.8373 40.5162 38.656 40.5162 42.088C40.5162 43.5253 41.0295 44.6253 42.0562 45.388C43.1122 46.1507 44.6228 46.8253 46.5882 47.412Z" fill="#22543D"/>
<path d="M2 96L2 27.5182L26.38 11.5947H46.5L71 3V72.75L48.46 85.4204H28.22L2 96Z" stroke="#22543D" stroke-width="3"/>
<path d="M8 87V31.8045L27.5 18.5554H46.6129L65 11V68.743L46.6129 79.2079H28.6855L8 87Z" stroke="#22543D" stroke-width="3"/>
</svg>
