<svg width="389" height="109" viewBox="0 0 389 109" fill="none" xmlns="http://www.w3.org/2000/svg">
<path d="M64.6094 55.56L64.0094 54.52L66.2494 53.24C68.0894 52.2267 69.0094 50.6133 69.0094 48.4C69.0094 44.2667 65.8627 42.2 59.5694 42.2H55.8894V69H54.6894V41H59.5694C63.0894 41 65.7427 41.6533 67.5294 42.96C69.3161 44.24 70.2094 46.0533 70.2094 48.4C70.2094 51.0667 69.0894 53.0267 66.8494 54.28L64.6094 55.56ZM87.2641 47.04C86.3574 46.7467 85.2374 46.6 83.9041 46.6C82.5708 46.6 81.4508 46.7467 80.5441 47.04C79.6374 47.3067 78.7974 47.8267 78.0241 48.6C77.2774 49.3467 76.7174 50.4533 76.3441 51.92C75.9708 53.36 75.7841 55.1867 75.7841 57.4C75.7841 59.6133 75.9708 61.4533 76.3441 62.92C76.7174 64.36 77.2774 65.4667 78.0241 66.24C78.7974 66.9867 79.6374 67.5067 80.5441 67.8C81.4508 68.0667 82.5708 68.2 83.9041 68.2C85.2374 68.2 86.3574 68.0667 87.2641 67.8C88.1708 67.5067 88.9974 66.9867 89.7441 66.24C90.5174 65.4667 91.0908 64.36 91.4641 62.92C91.8374 61.4533 92.0241 59.6133 92.0241 57.4C92.0241 55.1867 91.8374 53.36 91.4641 51.92C91.0908 50.4533 90.5174 49.3467 89.7441 48.6C88.9974 47.8267 88.1708 47.3067 87.2641 47.04ZM91.0641 66.56C89.6241 68.4533 87.2374 69.4 83.9041 69.4C80.5708 69.4 78.1841 68.4533 76.7441 66.56C75.3041 64.6667 74.5841 61.6133 74.5841 57.4C74.5841 53.1867 75.3041 50.1333 76.7441 48.24C78.1841 46.3467 80.5708 45.4 83.9041 45.4C87.2374 45.4 89.6241 46.3467 91.0641 48.24C92.5041 50.1333 93.2241 53.1867 93.2241 57.4C93.2241 61.6133 92.5041 64.6667 91.0641 66.56ZM113.202 67.8V69H99.8419V45.8H101.042V67.8H113.202ZM129.491 47.04C128.584 46.7467 127.464 46.6 126.131 46.6C124.797 46.6 123.677 46.7467 122.771 47.04C121.864 47.3067 121.024 47.8267 120.251 48.6C119.504 49.3467 118.944 50.4533 118.571 51.92C118.197 53.36 118.011 55.1867 118.011 57.4C118.011 59.6133 118.197 61.4533 118.571 62.92C118.944 64.36 119.504 65.4667 120.251 66.24C121.024 66.9867 121.864 67.5067 122.771 67.8C123.677 68.0667 124.797 68.2 126.131 68.2C127.464 68.2 128.584 68.0667 129.491 67.8C130.397 67.5067 131.224 66.9867 131.971 66.24C132.744 65.4667 133.317 64.36 133.691 62.92C134.064 61.4533 134.251 59.6133 134.251 57.4C134.251 55.1867 134.064 53.36 133.691 51.92C133.317 50.4533 132.744 49.3467 131.971 48.6C131.224 47.8267 130.397 47.3067 129.491 47.04ZM133.291 66.56C131.851 68.4533 129.464 69.4 126.131 69.4C122.797 69.4 120.411 68.4533 118.971 66.56C117.531 64.6667 116.811 61.6133 116.811 57.4C116.811 53.1867 117.531 50.1333 118.971 48.24C120.411 46.3467 122.797 45.4 126.131 45.4C129.464 45.4 131.851 46.3467 133.291 48.24C134.731 50.1333 135.451 53.1867 135.451 57.4C135.451 61.6133 134.731 64.6667 133.291 66.56ZM142.068 69V45.8H143.268L156.308 66.8V45.8H157.508V69H156.308L143.268 47.96V69H142.068ZM164.635 59.6V58.4H172.555V59.6H164.635ZM194.206 54.36H182.326L194.566 42.2H181.046V69H179.846V41H197.486L185.246 53.16H194.206V54.36ZM201.678 45.8H202.878V69H201.678V45.8ZM210.467 69V45.8H211.667L224.707 66.8V45.8H225.907V69H224.707L211.667 47.96V69H210.467ZM235.634 67.8H248.674L240.474 48.48L231.754 69H230.474L240.474 45.4L250.474 69H235.634V67.8ZM255.037 69V45.8H256.237L269.277 66.8V45.8H270.477V69H269.277L256.237 47.96V69H255.037ZM279.244 66.56C277.804 64.6667 277.084 61.6133 277.084 57.4C277.084 53.1867 277.804 50.1333 279.244 48.24C280.684 46.3467 283.071 45.4 286.404 45.4C289.737 45.4 292.137 46.32 293.604 48.16L292.724 48.96C291.551 47.3867 289.444 46.6 286.404 46.6C285.071 46.6 283.951 46.7467 283.044 47.04C282.137 47.3067 281.297 47.8267 280.524 48.6C279.777 49.3467 279.217 50.4533 278.844 51.92C278.471 53.36 278.284 55.1867 278.284 57.4C278.284 59.6133 278.471 61.4533 278.844 62.92C279.217 64.36 279.777 65.4667 280.524 66.24C281.297 66.9867 282.137 67.5067 283.044 67.8C283.951 68.0667 285.071 68.2 286.404 68.2C289.444 68.2 291.551 67.4133 292.724 65.84L293.604 66.64C292.137 68.48 289.737 69.4 286.404 69.4C283.071 69.4 280.684 68.4533 279.244 66.56ZM315.088 66.64C313.622 68.48 311.222 69.4 307.888 69.4C304.555 69.4 302.168 68.4533 300.728 66.56C299.288 64.6667 298.568 61.6133 298.568 57.4C298.568 53.1867 299.288 50.1333 300.728 48.24C302.168 46.3467 304.555 45.4 307.888 45.4C311.755 45.4 314.382 46.6667 315.768 49.2L305.968 57.4H304.088L314.208 48.96C313.035 47.3867 310.928 46.6 307.888 46.6C306.555 46.6 305.435 46.7467 304.528 47.04C303.622 47.3067 302.782 47.8267 302.008 48.6C301.262 49.3467 300.702 50.4533 300.328 51.92C299.955 53.36 299.768 55.1867 299.768 57.4C299.768 59.6133 299.955 61.4533 300.328 62.92C300.702 64.36 301.262 65.4667 302.008 66.24C302.782 66.9867 303.622 67.5067 304.528 67.8C305.435 68.0667 306.555 68.2 307.888 68.2C310.928 68.2 313.035 67.4133 314.208 65.84L315.088 66.64Z" fill="black"/>
<path d="M328.363 69H327.163V67.12C323.883 67.0133 321.603 66.28 320.323 64.92L321.123 64.04C322.429 65.24 324.443 65.8667 327.163 65.92V55.2C326.123 54.88 325.269 54.5867 324.603 54.32C323.936 54.0267 323.243 53.6533 322.523 53.2C321.829 52.72 321.309 52.1333 320.963 51.44C320.616 50.7467 320.443 49.9333 320.443 49C320.443 47.0267 321.069 45.5467 322.323 44.56C323.576 43.5467 325.189 43 327.163 42.92V41H328.363V42.92C331.323 43 333.456 43.7333 334.763 45.12L333.963 46C332.763 44.8533 330.896 44.2267 328.363 44.12V54.28C329.296 54.5467 329.963 54.7467 330.363 54.88C330.763 55.0133 331.349 55.2267 332.123 55.52C332.923 55.8133 333.509 56.1067 333.883 56.4C334.283 56.6933 334.709 57.0667 335.163 57.52C335.643 57.9733 335.976 58.4933 336.163 59.08C336.349 59.6667 336.443 60.3333 336.443 61.08C336.443 62.84 335.749 64.2667 334.363 65.36C332.976 66.4267 330.976 67.0133 328.363 67.12V69ZM328.363 55.56V65.88C330.629 65.7467 332.336 65.2267 333.483 64.32C334.656 63.3867 335.243 62.32 335.243 61.12C335.243 60.4533 335.096 59.8533 334.803 59.32C334.536 58.76 334.216 58.3067 333.843 57.96C333.496 57.6133 332.963 57.28 332.243 56.96C331.549 56.64 330.949 56.4 330.443 56.24C329.963 56.0533 329.269 55.8267 328.363 55.56ZM327.163 53.92V44.12C323.483 44.3067 321.643 45.96 321.643 49.08C321.643 50.3867 322.109 51.3867 323.043 52.08C324.003 52.7733 325.376 53.3867 327.163 53.92Z" fill="#22543D"/>
<path d="M1 107.5V30.4679L42.2223 11.6202H350.359L387.459 2V83.8697L350.359 98.529H42.2223L1 107.5Z" stroke="#22543D" stroke-width="2"/>
<path d="M9.2294 98V34.5L43.7294 18.8975H350.729L381.165 10V78L350.729 90.3238H43.7294L9.2294 98Z" stroke="#225F3D" stroke-width="2"/>
</svg>
