<svg width="389" height="108" viewBox="0 0 389 108" fill="none" xmlns="http://www.w3.org/2000/svg">
<path d="M64.88 54.56L64.28 53.52L66.52 52.24C68.36 51.2267 69.28 49.6133 69.28 47.4C69.28 43.2667 66.1333 41.2 59.84 41.2H56.16V68H54.96V40H59.84C63.36 40 66.0133 40.6533 67.8 41.96C69.5867 43.24 70.48 45.0533 70.48 47.4C70.48 50.0667 69.36 52.0267 67.12 53.28L64.88 54.56ZM87.5347 46.04C86.628 45.7467 85.508 45.6 84.1747 45.6C82.8414 45.6 81.7214 45.7467 80.8147 46.04C79.908 46.3067 79.068 46.8267 78.2947 47.6C77.548 48.3467 76.988 49.4533 76.6147 50.92C76.2414 52.36 76.0547 54.1867 76.0547 56.4C76.0547 58.6133 76.2414 60.4533 76.6147 61.92C76.988 63.36 77.548 64.4667 78.2947 65.24C79.068 65.9867 79.908 66.5067 80.8147 66.8C81.7214 67.0667 82.8414 67.2 84.1747 67.2C85.508 67.2 86.628 67.0667 87.5347 66.8C88.4414 66.5067 89.268 65.9867 90.0147 65.24C90.788 64.4667 91.3614 63.36 91.7347 61.92C92.108 60.4533 92.2947 58.6133 92.2947 56.4C92.2947 54.1867 92.108 52.36 91.7347 50.92C91.3614 49.4533 90.788 48.3467 90.0147 47.6C89.268 46.8267 88.4414 46.3067 87.5347 46.04ZM91.3347 65.56C89.8947 67.4533 87.508 68.4 84.1747 68.4C80.8414 68.4 78.4547 67.4533 77.0147 65.56C75.5747 63.6667 74.8547 60.6133 74.8547 56.4C74.8547 52.1867 75.5747 49.1333 77.0147 47.24C78.4547 45.3467 80.8414 44.4 84.1747 44.4C87.508 44.4 89.8947 45.3467 91.3347 47.24C92.7747 49.1333 93.4947 52.1867 93.4947 56.4C93.4947 60.6133 92.7747 63.6667 91.3347 65.56ZM113.473 66.8V68H100.113V44.8H101.312V66.8H113.473ZM129.761 46.04C128.855 45.7467 127.735 45.6 126.401 45.6C125.068 45.6 123.948 45.7467 123.041 46.04C122.135 46.3067 121.295 46.8267 120.521 47.6C119.775 48.3467 119.215 49.4533 118.841 50.92C118.468 52.36 118.281 54.1867 118.281 56.4C118.281 58.6133 118.468 60.4533 118.841 61.92C119.215 63.36 119.775 64.4667 120.521 65.24C121.295 65.9867 122.135 66.5067 123.041 66.8C123.948 67.0667 125.068 67.2 126.401 67.2C127.735 67.2 128.855 67.0667 129.761 66.8C130.668 66.5067 131.495 65.9867 132.241 65.24C133.015 64.4667 133.588 63.36 133.961 61.92C134.335 60.4533 134.521 58.6133 134.521 56.4C134.521 54.1867 134.335 52.36 133.961 50.92C133.588 49.4533 133.015 48.3467 132.241 47.6C131.495 46.8267 130.668 46.3067 129.761 46.04ZM133.561 65.56C132.121 67.4533 129.735 68.4 126.401 68.4C123.068 68.4 120.681 67.4533 119.241 65.56C117.801 63.6667 117.081 60.6133 117.081 56.4C117.081 52.1867 117.801 49.1333 119.241 47.24C120.681 45.3467 123.068 44.4 126.401 44.4C129.735 44.4 132.121 45.3467 133.561 47.24C135.001 49.1333 135.721 52.1867 135.721 56.4C135.721 60.6133 135.001 63.6667 133.561 65.56ZM142.339 68V44.8H143.539L156.579 65.8V44.8H157.779V68H156.579L143.539 46.96V68H142.339ZM164.906 58.6V57.4H172.826V58.6H164.906ZM194.476 53.36H182.596L194.836 41.2H181.316V68H180.116V40H197.756L185.516 52.16H194.476V53.36ZM201.948 44.8H203.148V68H201.948V44.8ZM210.738 68V44.8H211.938L224.978 65.8V44.8H226.178V68H224.978L211.938 46.96V68H210.738ZM235.904 66.8H248.944L240.744 47.48L232.024 68H230.744L240.744 44.4L250.744 68H235.904V66.8ZM255.308 68V44.8H256.508L269.548 65.8V44.8H270.748V68H269.548L256.508 46.96V68H255.308ZM279.515 65.56C278.075 63.6667 277.355 60.6133 277.355 56.4C277.355 52.1867 278.075 49.1333 279.515 47.24C280.955 45.3467 283.341 44.4 286.675 44.4C290.008 44.4 292.408 45.32 293.875 47.16L292.995 47.96C291.821 46.3867 289.715 45.6 286.675 45.6C285.341 45.6 284.221 45.7467 283.315 46.04C282.408 46.3067 281.568 46.8267 280.795 47.6C280.048 48.3467 279.488 49.4533 279.115 50.92C278.741 52.36 278.555 54.1867 278.555 56.4C278.555 58.6133 278.741 60.4533 279.115 61.92C279.488 63.36 280.048 64.4667 280.795 65.24C281.568 65.9867 282.408 66.5067 283.315 66.8C284.221 67.0667 285.341 67.2 286.675 67.2C289.715 67.2 291.821 66.4133 292.995 64.84L293.875 65.64C292.408 67.48 290.008 68.4 286.675 68.4C283.341 68.4 280.955 67.4533 279.515 65.56ZM315.359 65.64C313.892 67.48 311.492 68.4 308.159 68.4C304.826 68.4 302.439 67.4533 300.999 65.56C299.559 63.6667 298.839 60.6133 298.839 56.4C298.839 52.1867 299.559 49.1333 300.999 47.24C302.439 45.3467 304.826 44.4 308.159 44.4C312.026 44.4 314.652 45.6667 316.039 48.2L306.239 56.4H304.359L314.479 47.96C313.306 46.3867 311.199 45.6 308.159 45.6C306.826 45.6 305.706 45.7467 304.799 46.04C303.892 46.3067 303.052 46.8267 302.279 47.6C301.532 48.3467 300.972 49.4533 300.599 50.92C300.226 52.36 300.039 54.1867 300.039 56.4C300.039 58.6133 300.226 60.4533 300.599 61.92C300.972 63.36 301.532 64.4667 302.279 65.24C303.052 65.9867 303.892 66.5067 304.799 66.8C305.706 67.0667 306.826 67.2 308.159 67.2C311.199 67.2 313.306 66.4133 314.479 64.84L315.359 65.64ZM328.633 68H327.433V66.12C324.153 66.0133 321.873 65.28 320.593 63.92L321.393 63.04C322.7 64.24 324.713 64.8667 327.433 64.92V54.2C326.393 53.88 325.54 53.5867 324.873 53.32C324.206 53.0267 323.513 52.6533 322.793 52.2C322.1 51.72 321.58 51.1333 321.233 50.44C320.886 49.7467 320.713 48.9333 320.713 48C320.713 46.0267 321.34 44.5467 322.593 43.56C323.846 42.5467 325.46 42 327.433 41.92V40H328.633V41.92C331.593 42 333.726 42.7333 335.033 44.12L334.233 45C333.033 43.8533 331.166 43.2267 328.633 43.12V53.28C329.566 53.5467 330.233 53.7467 330.633 53.88C331.033 54.0133 331.62 54.2267 332.393 54.52C333.193 54.8133 333.78 55.1067 334.153 55.4C334.553 55.6933 334.98 56.0667 335.433 56.52C335.913 56.9733 336.246 57.4933 336.433 58.08C336.62 58.6667 336.713 59.3333 336.713 60.08C336.713 61.84 336.02 63.2667 334.633 64.36C333.246 65.4267 331.246 66.0133 328.633 66.12V68ZM328.633 54.56V64.88C330.9 64.7467 332.606 64.2267 333.753 63.32C334.926 62.3867 335.513 61.32 335.513 60.12C335.513 59.4533 335.366 58.8533 335.073 58.32C334.806 57.76 334.486 57.3067 334.113 56.96C333.766 56.6133 333.233 56.28 332.513 55.96C331.82 55.64 331.22 55.4 330.713 55.24C330.233 55.0533 329.54 54.8267 328.633 54.56ZM327.433 52.92V43.12C323.753 43.3067 321.913 44.96 321.913 48.08C321.913 49.3867 322.38 50.3867 323.313 51.08C324.273 51.7733 325.646 52.3867 327.433 52.92Z" fill="#E6FFFA"/>
<path d="M1.2706 106.5V29.4679L42.4929 10.6202H350.629L387.729 1V82.8697L350.629 97.529H42.4929L1.2706 106.5Z" stroke="#E6FFFA"/>
<path d="M9.5 97V33.5L44 17.8975H351L381.435 9V77L351 89.3238H44L9.5 97Z" stroke="#E6FFFA"/>
</svg>
